<?xml version="1.0" encoding="utf-8"?>
<!-- Generator: Adobe Illustrator 16.0.0, SVG Export Plug-In . SVG Version: 6.00 Build 0)  -->
<!DOCTYPE svg PUBLIC "-//W3C//DTD SVG 1.1//EN" "http://www.w3.org/Graphics/SVG/1.1/DTD/svg11.dtd">
<svg version="1.1" id="Layer_1" xmlns="http://www.w3.org/2000/svg" xmlns:xlink="http://www.w3.org/1999/xlink" x="0px" y="0px"
	 width="282.947px" height="76.094px" viewBox="0 0 282.947 76.094" enable-background="new 0 0 282.947 76.094"
	 xml:space="preserve">
<g>
	<path stroke="#000000" stroke-width="2.25" stroke-miterlimit="10" d="M20.504,2.25L6.688,55.673H2.25L16.017,2.25H20.504z"/>
	<path stroke="#000000" stroke-width="2.25" stroke-miterlimit="10" d="M63.315,16.337c2.824,2.032,4.773,4.808,5.849,8.328h-4.841
		c-0.908-2.24-2.37-4.024-4.387-5.352c-2.017-1.328-4.488-1.992-7.413-1.992c-2.319,0-4.396,0.536-6.228,1.608
		c-1.833,1.073-3.277,2.608-4.336,4.608c-1.059,2-1.588,4.344-1.588,7.032c0,2.657,0.529,4.976,1.588,6.96
		c1.059,1.984,2.504,3.512,4.336,4.584c1.832,1.073,3.908,1.608,6.228,1.608c2.925,0,5.396-0.664,7.413-1.992
		c2.017-1.328,3.479-3.112,4.387-5.352h4.841c-1.076,3.521-3.025,6.296-5.849,8.328c-2.824,2.032-6.404,3.048-10.741,3.048
		c-3.328,0-6.271-0.728-8.825-2.184c-2.555-1.456-4.547-3.487-5.976-6.096c-1.429-2.607-2.143-5.575-2.143-8.904
		c0-3.36,0.714-6.352,2.143-8.976c1.429-2.624,3.42-4.664,5.976-6.12c2.554-1.456,5.497-2.184,8.825-2.184
		C56.911,13.29,60.491,14.306,63.315,16.337z"/>
	<path stroke="#000000" stroke-width="2.25" stroke-miterlimit="10" d="M96.648,47.465l-7.867-22.274
		c-0.757-2.256-1.261-4.176-1.765-6.145h-0.151c-0.504,2.016-1.009,3.984-1.664,6.097l-7.716,22.322h-4.589L84.443,15.11h5.245
		l11.7,32.355H96.648z"/>
	<path stroke="#000000" stroke-width="2.25" stroke-miterlimit="10" d="M124.884,47.465l-9.278-13.824h-4.992v13.824h-4.589v-33.84
		h11.699c4.034,0,7.06,0.92,9.077,2.76c2.017,1.841,3.025,4.28,3.025,7.32c0,2.752-0.807,4.968-2.42,6.648
		c-1.614,1.68-3.951,2.729-7.009,3.144l9.682,13.968H124.884z M110.613,30.473h6.707c5.21,0,7.816-2.176,7.816-6.528
		c0-4.352-2.605-6.528-7.816-6.528h-6.707V30.473z"/>
	<path stroke="#000000" stroke-width="2.25" stroke-miterlimit="10" d="M140.011,44.057h12.606v3.408h-17.195v-33.84h4.589V44.057z"
		/>
	<path stroke="#000000" stroke-width="2.25" stroke-miterlimit="10" d="M191.042,43.146c-0.807,1.376-2.034,2.496-3.682,3.36
		c-1.647,0.864-3.681,1.296-6.102,1.296c-2.354,0-4.445-0.408-6.277-1.224c-1.833-0.816-3.295-1.936-4.388-3.36
		c-1.093-1.423-1.723-3.048-1.891-4.872h4.892c0.101,0.96,0.445,1.896,1.033,2.808s1.429,1.664,2.521,2.256
		c1.092,0.593,2.412,0.888,3.959,0.888c2.017,0,3.563-0.512,4.639-1.536c1.075-1.023,1.613-2.335,1.613-3.936
		c0-1.375-0.378-2.496-1.134-3.36c-0.757-0.864-1.689-1.543-2.799-2.04c-1.109-0.496-2.622-1.032-4.538-1.608
		c-2.253-0.704-4.06-1.368-5.421-1.992c-1.362-0.624-2.521-1.56-3.479-2.808c-0.958-1.248-1.438-2.896-1.438-4.944
		c0-1.759,0.445-3.312,1.337-4.656c0.89-1.344,2.168-2.384,3.832-3.12c1.664-0.736,3.622-1.104,5.874-1.104
		c3.496,0,6.27,0.809,8.32,2.424c2.051,1.616,3.244,3.672,3.581,6.168h-4.942c-0.27-1.344-0.992-2.527-2.168-3.552
		c-1.178-1.024-2.773-1.536-4.791-1.536c-1.849,0-3.328,0.456-4.438,1.368s-1.664,2.2-1.664,3.864c0,1.313,0.361,2.376,1.085,3.192
		c0.723,0.816,1.621,1.457,2.697,1.92c1.075,0.464,2.555,0.984,4.438,1.56c2.286,0.704,4.126,1.376,5.521,2.016
		c1.395,0.641,2.58,1.608,3.556,2.904c0.975,1.296,1.462,3.016,1.462,5.16C192.251,40.282,191.848,41.77,191.042,43.146z"/>
	<path stroke="#000000" stroke-width="2.25" stroke-miterlimit="10" d="M202.992,13.625v33.84h-4.589v-33.84H202.992z"/>
	<path stroke="#000000" stroke-width="2.25" stroke-miterlimit="10" d="M245.954,14.201v33.264h-4.588V20.921l-11.145,26.544h-4.085
		l-11.194-26.448v26.448h-4.589V14.201h5.497l12.404,27.936l12.203-27.936H245.954z"/>
	<path stroke="#000000" stroke-width="2.25" stroke-miterlimit="10" d="M280.698,2.25L266.88,55.673h-4.438L276.209,2.25H280.698z"
		/>
</g>
<g>
</g>
<g>
</g>
<g>
</g>
<g>
</g>
<g>
</g>
<g>
</g>
</svg>
