<svg width="100px" height="100px" enable-background="new 0 0 161.25 117" version="1.1" viewBox="0 0 161.25 117" xml:space="preserve" xmlns="http://www.w3.org/2000/svg" xmlns:xlink="http://www.w3.org/1999/xlink">
    <defs>
      <rect id="b" x="-364.75" y="-58" width="612" height="792"/>
    </defs>
    <clipPath id="a">
      <use overflow="visible" xlink:href="#b"/>
    </clipPath>
    <path d="m95.163 44.502c-7.972 7.973-20.944 7.973-28.915 0-7.974-7.973-7.974-20.943 0-28.916 3.775-3.776 8.794-5.901 14.133-5.986 0.76-0.012 1.385 0.593 1.396 1.353 0.012 0.758-0.592 1.383-1.354 1.397-4.62 0.072-8.965 1.912-12.232 5.18-6.9 6.9-6.9 18.127 0 25.029 6.9 6.9 18.127 6.9 25.027 0 3.092-3.092 4.923-7.197 5.158-11.557 0.041-0.76 0.688-1.34 1.446-1.299 0.758 0.04 1.34 0.688 1.299 1.445-0.271 5.041-2.387 9.782-5.958 13.354" clip-path="url(#a)" fill="#fff"/>
    <path d="m62.684 12.063c9.925-9.928 26.076-9.928 36.004 0 9.928 9.926 9.928 26.077 0 36.005-5.57 5.569-13.256 8.22-21.085 7.27-0.783-0.095-1.343-0.806-1.246-1.591 0.096-0.784 0.808-1.341 1.591-1.246 6.95 0.841 13.774-1.51 18.719-6.455 8.813-8.812 8.813-23.151 0-31.962-8.813-8.812-23.15-8.812-31.963 0-4.867 4.867-7.23 11.587-6.485 18.438 0.085 0.785-0.481 1.49-1.267 1.576-0.785 0.085-1.49-0.482-1.576-1.266-0.841-7.719 1.823-15.289 7.308-20.769" clip-path="url(#a)" fill="#fff"/>
    <path d="m89.999 31.75c-1.079-1e-3 -1.952-0.732-1.949-1.634 1e-3 -0.903 0.875-1.633 1.954-1.63 1.078 3e-3 1.951 0.735 1.949 1.637-4e-3 0.9-0.879 1.629-1.954 1.627" clip-path="url(#a)" fill="#8DC63F"/>
    <path d="m86.859 35.139c-1.263-1.264-2.035-3.033-2.035-5.02 2e-3 -3.994 2.953-7.003 6.869-7.003 0.26 0 0.522 0.018 0.778 0.052 0.598 0.083 1.015 0.635 0.935 1.23-0.084 0.598-0.635 1.015-1.231 0.933-0.159-0.021-0.321-0.032-0.483-0.033-2.713 1e-3 -4.684 2.028-4.685 4.82 1e-3 2.702 2.062 4.82 4.687 4.819 0.16 0 0.323-0.012 0.482-0.033 0.598-0.082 1.148 0.336 1.23 0.934 0.08 0.598-0.337 1.147-0.937 1.23-0.254 0.033-0.515 0.05-0.773 0.051-1.903 2e-3 -3.604-0.748-4.837-1.98" clip-path="url(#a)" fill="#fff"/>
    <path d="m82.399 21.1c-1e-3 1.077-0.733 1.951-1.634 1.949-0.902-2e-3 -1.633-0.877-1.632-1.955 4e-3 -1.077 0.737-1.949 1.638-1.949 0.903 2e-3 1.632 0.877 1.628 1.955" clip-path="url(#a)" fill="#fff"/>
    <path d="m75.723 24.264c-1.226-1.226-1.959-2.925-1.959-4.859 0-0.258 0.018-0.52 0.055-0.778 0.08-0.596 0.629-1.015 1.227-0.933 0.6 0.08 1.018 0.632 0.937 1.228-0.022 0.16-0.033 0.324-0.033 0.483 3e-3 2.713 2.024 4.684 4.818 4.685 2.703 0 4.819-2.057 4.819-4.686 0-0.16-0.012-0.324-0.033-0.484-0.08-0.595 0.337-1.146 0.936-1.226 0.596-0.084 1.148 0.337 1.227 0.933 0.037 0.254 0.055 0.515 0.055 0.776 0 3.853-3.076 6.871-7.003 6.873-2.023-3e-3 -3.792-0.758-5.046-2.012" clip-path="url(#a)" fill="#fff"/>
    <path d="m71.773 28.2c1.078 1e-3 1.949 0.734 1.947 1.636-2e-3 0.9-0.875 1.631-1.953 1.629-1.078-4e-3 -1.951-0.736-1.949-1.636 2e-3 -0.902 0.878-1.632 1.955-1.629" clip-path="url(#a)" fill="#fff"/>
    <path d="m68.676 36.473c-0.232-0.232-0.357-0.568-0.311-0.921 0.084-0.598 0.635-1.015 1.232-0.933 0.157 0.022 0.318 0.033 0.48 0.034 2.715-1e-3 4.686-2.028 4.686-4.82 0-2.703-2.059-4.819-4.686-4.819-0.16 2e-3 -0.323 0.012-0.484 0.033-0.596 0.082-1.146-0.338-1.229-0.935-0.082-0.596 0.338-1.147 0.937-1.229 0.253-0.034 0.515-0.053 0.774-0.053 3.854 0 6.871 3.077 6.871 7.003 0 3.992-2.953 7.002-6.869 7.003-0.262-1e-3 -0.523-0.019-0.777-0.052-0.246-0.036-0.46-0.147-0.624-0.311" clip-path="url(#a)" fill="#fff"/>
    <path d="m79.372 38.852c1e-3 -1.078 0.733-1.951 1.634-1.947 0.902 0 1.633 0.875 1.631 1.953-4e-3 1.077-0.734 1.949-1.636 1.949-0.903-2e-3 -1.632-0.878-1.629-1.955" clip-path="url(#a)" fill="#fff"/>
    <path d="m74.363 41.949c-0.163-0.163-0.274-0.379-0.309-0.625-0.035-0.255-0.053-0.516-0.053-0.773 0-3.856 3.075-6.873 7.002-6.873 3.993 0 7.004 2.954 7.004 6.869 0 0.257-0.018 0.518-0.055 0.777-0.081 0.597-0.632 1.016-1.228 0.935-0.598-0.082-1.018-0.633-0.935-1.23 0.021-0.16 0.032-0.324 0.032-0.482-1e-3 -2.715-2.026-4.686-4.819-4.686-2.701-1e-3 -4.818 2.059-4.818 4.688 0 0.158 0.012 0.322 0.033 0.481 0.08 0.597-0.338 1.147-0.936 1.229-0.349 0.047-0.684-0.078-0.918-0.31" clip-path="url(#a)" fill="#fff"/>
    <path d="m5.1 113.71h-1.45v2.003h-0.4v-5.371h1.95c1.181 0 1.995 0.605 1.995 1.641v0.016c0 1.128-0.974 1.711-2.095 1.711m1.695-1.703c0-0.851-0.658-1.296-1.626-1.296h-1.52v2.63h1.474c0.998 0 1.672-0.521 1.672-1.321v-0.013z" clip-path="url(#a)" fill="#fff"/>
    <path d="m10.363 112.16c-0.904 0-1.697 0.682-1.697 1.955v1.606h-0.374v-3.915h0.374v1.114c0.309-0.699 0.961-1.205 1.736-1.175v0.415h-0.039z" clip-path="url(#a)" fill="#fff"/>
    <path d="m12.903 115.81c-1.158 0-2.003-0.936-2.003-2.034v-0.015c0-1.098 0.854-2.049 2.018-2.049 1.159 0 2.004 0.936 2.004 2.035v0.014c0 1.098-0.854 2.049-2.019 2.049m1.611-2.049c0-0.944-0.704-1.697-1.61-1.697-0.929 0-1.595 0.761-1.595 1.683v0.014c0 0.943 0.706 1.695 1.609 1.695 0.93 0 1.596-0.758 1.596-1.68v-0.015z" clip-path="url(#a)" fill="#fff"/>
    <path d="m17.169 110.44c-0.536 0-0.79 0.322-0.79 0.99v0.375h1.366v0.346h-1.366v3.568h-0.377v-3.568h-0.567v-0.346h0.567v-0.383c0-0.845 0.432-1.328 1.167-1.328 0.238 0 0.407 0.033 0.583 0.093v0.351c-0.223-0.067-0.385-0.098-0.583-0.098" clip-path="url(#a)" fill="#fff"/>
    <path d="m20.062 115.46c0.606 0 1.021-0.269 1.343-0.614l0.26 0.229c-0.398 0.432-0.867 0.738-1.617 0.738-1.027 0-1.918-0.822-1.918-2.042v-0.014c0-1.137 0.797-2.041 1.856-2.041 1.097 0 1.796 0.888 1.796 2.049v0.014c0 0.054 0 0.078-8e-3 0.138h-3.247c0.071 0.975 0.768 1.543 1.535 1.543m1.312-1.881c-0.054-0.788-0.505-1.519-1.405-1.519-0.774 0-1.371 0.654-1.442 1.519h2.847z" clip-path="url(#a)" fill="#fff"/>
    <path d="m24.144 115.79c-0.567 0-1.189-0.229-1.604-0.565l0.222-0.3c0.431 0.33 0.906 0.513 1.405 0.513 0.528 0 0.942-0.291 0.942-0.742v-0.016c0-0.461-0.49-0.63-1.035-0.785-0.637-0.182-1.342-0.375-1.342-1.072v-0.015c0-0.631 0.529-1.083 1.287-1.083 0.47 0 1 0.169 1.39 0.43l-0.2 0.315c-0.359-0.237-0.789-0.391-1.204-0.391-0.535 0-0.89 0.289-0.89 0.682v0.014c0 0.439 0.53 0.601 1.09 0.761 0.63 0.177 1.29 0.406 1.29 1.097v0.014c0 0.7-0.6 1.143-1.351 1.143" clip-path="url(#a)" fill="#fff"/>
    <path d="m27.879 115.79c-0.567 0-1.189-0.229-1.604-0.565l0.225-0.3c0.428 0.33 0.904 0.513 1.404 0.513 0.527 0 0.941-0.291 0.941-0.742v-0.016c0-0.461-0.49-0.63-1.035-0.785-0.637-0.182-1.343-0.375-1.343-1.072v-0.015c0-0.631 0.53-1.083 1.288-1.083 0.471 0 1 0.169 1.389 0.43l-0.199 0.315c-0.358-0.237-0.791-0.391-1.202-0.391-0.538 0-0.892 0.289-0.892 0.682v0.014c0 0.439 0.529 0.601 1.089 0.761 0.63 0.177 1.29 0.406 1.29 1.097v0.014c0 0.7-0.597 1.143-1.351 1.143" clip-path="url(#a)" fill="#fff"/>
    <path d="m30.435 110.27h0.47v0.515h-0.47v-0.515zm0.047 1.535h0.375v3.914h-0.375v-3.914z" clip-path="url(#a)" fill="#fff"/>
    <path d="m34.072 115.81c-1.16 0-2.004-0.936-2.004-2.034v-0.015c0-1.098 0.852-2.049 2.02-2.049 1.158 0 2.003 0.936 2.003 2.035v0.014c0 1.098-0.853 2.049-2.019 2.049m1.612-2.049c0-0.944-0.707-1.697-1.611-1.697-0.93 0-1.598 0.761-1.598 1.683v0.014c0 0.943 0.707 1.695 1.613 1.695 0.93 0 1.596-0.758 1.596-1.68v-0.015z" clip-path="url(#a)" fill="#fff"/>
    <path d="m40.227 115.72v-2.326c0-0.805-0.453-1.335-1.244-1.335-0.768 0-1.357 0.585-1.357 1.395v2.266h-0.376v-3.914h0.375v0.729c0.261-0.461 0.697-0.821 1.411-0.821 0.989 0 1.564 0.676 1.564 1.61v2.396h-0.373z" clip-path="url(#a)" fill="#fff"/>
    <path d="m44.637 115.72v-0.654c-0.27 0.377-0.751 0.746-1.496 0.746-0.727 0-1.513-0.414-1.513-1.229v-0.013c0-0.815 0.7-1.278 1.712-1.278 0.546 0 0.92 0.072 1.297 0.171v-0.171c0-0.787-0.481-1.193-1.289-1.193-0.477 0-0.867 0.13-1.229 0.313l-0.139-0.329c0.434-0.199 0.854-0.338 1.391-0.338 1.006 0 1.635 0.522 1.635 1.535v2.44h-0.369zm8e-3 -1.91c-0.33-0.085-0.77-0.178-1.326-0.178-0.829 0-1.29 0.367-1.29 0.913v0.015c0 0.568 0.536 0.898 1.137 0.898 0.797 0 1.479-0.492 1.479-1.205v-0.443z" clip-path="url(#a)" fill="#fff"/>
    <rect x="46.41" y="110.12" width=".374" height="5.6" clip-path="url(#a)" fill="#fff"/>
    <path d="m52.469 115.79c-0.859 0-1.518-0.283-2.162-0.857l0.261-0.3c0.59 0.546 1.136 0.798 1.927 0.798 0.805 0 1.357-0.453 1.357-1.067v-0.015c0-0.567-0.299-0.899-1.521-1.144-1.289-0.259-1.809-0.698-1.809-1.509v-0.017c0-0.797 0.729-1.412 1.727-1.412 0.782 0 1.297 0.214 1.842 0.652l-0.254 0.314c-0.504-0.435-1.013-0.605-1.605-0.605-0.789 0-1.311 0.451-1.311 1.013v0.016c0 0.568 0.292 0.912 1.564 1.174 1.244 0.253 1.766 0.696 1.766 1.48v0.016c-1e-3 0.867-0.746 1.463-1.782 1.463" clip-path="url(#a)" fill="#fff"/>
    <path d="m57.144 115.46c0.605 0 1.019-0.269 1.343-0.614l0.26 0.229c-0.398 0.432-0.866 0.738-1.617 0.738-1.03 0-1.921-0.822-1.921-2.042v-0.014c0-1.137 0.8-2.041 1.857-2.041 1.097 0 1.798 0.888 1.798 2.049v0.014c0 0.054 0 0.078-0.01 0.138h-3.245c0.067 0.975 0.766 1.543 1.535 1.543m1.311-1.881c-0.053-0.788-0.506-1.519-1.404-1.519-0.773 0-1.375 0.654-1.442 1.519h2.846z" clip-path="url(#a)" fill="#fff"/>
    <path d="m62.029 112.16c-0.902 0-1.695 0.682-1.695 1.955v1.606h-0.377v-3.915h0.377v1.114c0.307-0.699 0.959-1.205 1.734-1.175v0.415h-0.039z" clip-path="url(#a)" fill="#fff"/>
    <polygon points="64.707 115.74 64.386 115.74 62.629 111.8 63.064 111.8 64.547 115.29 66.041 111.8 66.464 111.8" clip-path="url(#a)" fill="#fff"/>
    <path d="m67.5 110.27h0.469v0.515h-0.469v-0.515zm0.047 1.535h0.375v3.914h-0.375v-3.914z" clip-path="url(#a)" fill="#fff"/>
    <path d="m71.128 115.81c-1.127 0-1.994-0.936-1.994-2.034v-0.015c0-1.097 0.874-2.049 1.994-2.049 0.737 0 1.2 0.338 1.565 0.721l-0.268 0.277c-0.338-0.347-0.723-0.646-1.305-0.646-0.89 0-1.58 0.746-1.58 1.683v0.014c0 0.944 0.713 1.695 1.611 1.695 0.551 0 0.981-0.285 1.312-0.651l0.261 0.23c-0.396 0.453-0.872 0.775-1.596 0.775" clip-path="url(#a)" fill="#fff"/>
    <path d="m75.334 115.46c0.605 0 1.02-0.269 1.342-0.614l0.26 0.229c-0.396 0.432-0.866 0.738-1.617 0.738-1.027 0-1.919-0.822-1.919-2.042v-0.014c0-1.137 0.801-2.041 1.856-2.041 1.098 0 1.797 0.888 1.797 2.049v0.014c0 0.054 0 0.078-8e-3 0.138h-3.244c0.067 0.975 0.765 1.543 1.533 1.543m1.312-1.881c-0.054-0.788-0.506-1.519-1.404-1.519-0.773 0-1.374 0.654-1.441 1.519h2.845z" clip-path="url(#a)" fill="#fff"/>
    <path d="m79.416 115.79c-0.568 0-1.19-0.229-1.604-0.565l0.222-0.3c0.431 0.33 0.905 0.513 1.405 0.513 0.527 0 0.945-0.291 0.945-0.742v-0.016c0-0.461-0.494-0.63-1.039-0.785-0.637-0.182-1.342-0.375-1.342-1.072v-0.015c0-0.631 0.531-1.083 1.289-1.083 0.469 0 0.996 0.169 1.391 0.43l-0.199 0.315c-0.362-0.237-0.791-0.391-1.208-0.391-0.535 0-0.889 0.289-0.889 0.682v0.014c0 0.439 0.53 0.601 1.089 0.761 0.629 0.177 1.289 0.406 1.289 1.097v0.014c1e-3 0.7-0.597 1.143-1.349 1.143" clip-path="url(#a)" fill="#fff"/>
    <path d="m85.66 110.44c-0.537 0-0.789 0.322-0.789 0.99v0.375h1.365v0.346h-1.365v3.568h-0.377v-3.568h-0.566v-0.346h0.566v-0.383c0-0.845 0.431-1.328 1.166-1.328 0.238 0 0.408 0.033 0.586 0.093v0.351c-0.225-0.067-0.385-0.098-0.586-0.098" clip-path="url(#a)" fill="#fff"/>
    <path d="m88.699 115.81c-1.159 0-2.003-0.936-2.003-2.034v-0.015c0-1.098 0.854-2.049 2.019-2.049 1.159 0 2.002 0.936 2.002 2.035v0.014c0 1.098-0.852 2.049-2.018 2.049m1.613-2.049c0-0.944-0.706-1.697-1.612-1.697-0.928 0-1.596 0.761-1.596 1.683v0.014c0 0.943 0.705 1.695 1.611 1.695 0.928 0 1.597-0.758 1.597-1.68v-0.015z" clip-path="url(#a)" fill="#fff"/>
    <path d="m93.947 112.16c-0.906 0-1.693 0.682-1.693 1.955v1.606h-0.379v-3.915h0.379v1.114c0.303-0.699 0.955-1.205 1.73-1.175v0.415h-0.037z" clip-path="url(#a)" fill="#fff"/>
    <polygon points="97.729 110.72 97.729 112.92 100.77 112.92 100.77 113.28 97.729 113.28 97.729 115.72 97.33 115.72 97.33 110.35 101.11 110.35 101.11 110.72" clip-path="url(#a)" fill="#fff"/>
    <path d="m104.77 115.72v-0.654c-0.268 0.377-0.75 0.746-1.495 0.746-0.729 0-1.512-0.414-1.512-1.229v-0.013c0-0.815 0.698-1.278 1.712-1.278 0.545 0 0.921 0.072 1.295 0.171v-0.171c0-0.787-0.481-1.193-1.288-1.193-0.475 0-0.867 0.13-1.227 0.313l-0.139-0.329c0.43-0.199 0.851-0.338 1.389-0.338 1.006 0 1.634 0.522 1.634 1.535v2.44h-0.369zm8e-3 -1.91c-0.327-0.085-0.769-0.178-1.325-0.178-0.831 0-1.289 0.367-1.289 0.913v0.015c0 0.568 0.535 0.898 1.136 0.898 0.795 0 1.479-0.492 1.479-1.205v-0.443z" clip-path="url(#a)" fill="#fff"/>
    <path d="m112.03 115.72v-2.326c0-0.844-0.438-1.335-1.158-1.335-0.66 0-1.234 0.507-1.234 1.382v2.279h-0.379v-2.348c0-0.814-0.443-1.313-1.141-1.313s-1.251 0.616-1.251 1.404v2.257h-0.375v-3.914h0.375v0.699c0.253-0.406 0.605-0.791 1.305-0.791 0.681 0 1.103 0.391 1.319 0.844 0.253-0.438 0.675-0.844 1.41-0.844 0.93 0 1.506 0.651 1.506 1.634v2.372h-0.377z" clip-path="url(#a)" fill="#fff"/>
    <path d="m113.8 110.27h0.467v0.515h-0.467v-0.515zm0.045 1.535h0.377v3.914h-0.377v-3.914z" clip-path="url(#a)" fill="#fff"/>
    <rect x="115.75" y="110.12" width=".377" height="5.6" clip-path="url(#a)" fill="#fff"/>
    <path d="m117.62 110.27h0.469v0.515h-0.469v-0.515zm0.047 1.535h0.376v3.914h-0.376v-3.914z" clip-path="url(#a)" fill="#fff"/>
    <path d="m121.19 115.46c0.604 0 1.019-0.269 1.341-0.614l0.262 0.229c-0.4 0.432-0.867 0.738-1.619 0.738-1.029 0-1.918-0.822-1.918-2.042v-0.014c0-1.137 0.799-2.041 1.857-2.041 1.096 0 1.794 0.888 1.794 2.049v0.014c0 0.054 0 0.078-7e-3 0.138h-3.246c0.07 0.975 0.767 1.543 1.536 1.543m1.309-1.881c-0.053-0.788-0.506-1.519-1.401-1.519-0.778 0-1.374 0.654-1.444 1.519h2.845z" clip-path="url(#a)" fill="#fff"/>
    <path d="m125.27 115.79c-0.568 0-1.191-0.229-1.604-0.565l0.223-0.3c0.43 0.33 0.908 0.513 1.404 0.513 0.528 0 0.943-0.291 0.943-0.742v-0.016c0-0.461-0.489-0.63-1.035-0.785-0.638-0.182-1.343-0.375-1.343-1.072v-0.015c0-0.631 0.529-1.083 1.29-1.083 0.469 0 0.996 0.169 1.387 0.43l-0.199 0.315c-0.36-0.237-0.789-0.391-1.203-0.391-0.537 0-0.891 0.289-0.891 0.682v0.014c0 0.439 0.528 0.601 1.09 0.761 0.629 0.177 1.289 0.406 1.289 1.097v0.014c-1e-3 0.7-0.598 1.143-1.351 1.143" clip-path="url(#a)" fill="#fff"/>
    <path d="m130.12 110.27h0.469v0.515h-0.469v-0.515zm0.049 1.535h0.375v3.914h-0.375v-3.914z" clip-path="url(#a)" fill="#fff"/>
    <path d="m135 115.72v-2.326c0-0.805-0.452-1.335-1.242-1.335-0.768 0-1.355 0.585-1.355 1.395v2.266h-0.379v-3.914h0.379v0.729c0.258-0.461 0.697-0.821 1.411-0.821 0.987 0 1.563 0.676 1.563 1.61v2.396h-0.377z" clip-path="url(#a)" fill="#fff"/>
    <path d="m141.55 115.81c-1.533 0-2.67-1.222-2.67-2.762v-0.015c0-1.52 1.137-2.78 2.684-2.78 0.963 0 1.537 0.354 2.09 0.86l-0.285 0.293c-0.465-0.453-1.004-0.791-1.809-0.791-1.289 0-2.268 1.052-2.268 2.402v0.016c0 1.357 0.992 2.417 2.271 2.417 0.777 0 1.305-0.3 1.852-0.837l0.268 0.261c-0.569 0.559-1.18 0.936-2.133 0.936" clip-path="url(#a)" fill="#fff"/>
    <path d="m146.12 115.81c-1.159 0-2.002-0.936-2.002-2.034v-0.015c0-1.098 0.855-2.049 2.018-2.049 1.161 0 2.003 0.936 2.003 2.035v0.014c0 1.098-0.851 2.049-2.019 2.049m1.611-2.049c0-0.944-0.704-1.697-1.611-1.697-0.926 0-1.596 0.761-1.596 1.683v0.014c0 0.943 0.705 1.695 1.611 1.695 0.929 0 1.596-0.758 1.596-1.68v-0.015z" clip-path="url(#a)" fill="#fff"/>
    <path d="m151.89 115.72v-0.73c-0.262 0.461-0.699 0.822-1.411 0.822-0.991 0-1.567-0.676-1.567-1.61v-2.396h0.377v2.326c0 0.805 0.453 1.334 1.242 1.334 0.768 0 1.359-0.584 1.359-1.396v-2.264h0.375v3.914h-0.375z" clip-path="url(#a)" fill="#fff"/>
    <path d="m155.15 112.16c-0.904 0-1.693 0.682-1.693 1.955v1.606h-0.377v-3.915h0.377v1.114c0.306-0.699 0.959-1.205 1.732-1.175v0.415h-0.039z" clip-path="url(#a)" fill="#fff"/>
    <path d="m157.45 115.79c-0.607 0-1.097-0.331-1.097-1.075v-2.563h-0.568v-0.345h0.568v-1.251h0.375v1.251h1.374v0.345h-1.374v2.524c0 0.561 0.33 0.76 0.784 0.76 0.19 0 0.354-0.038 0.575-0.139v0.353c-0.199 0.092-0.392 0.14-0.637 0.14" clip-path="url(#a)" fill="#fff"/>
    <polygon points="13.791 65.273 15.459 65.273 15.459 78.503 23.773 78.503 23.773 80.044 13.791 80.044" clip-path="url(#a)" fill="#fff"/>
    <path d="m29.764 80.297c-3.27 0-5.656-2.574-5.656-5.676 0-3.103 2.407-5.721 5.698-5.721 3.272 0 5.677 2.577 5.677 5.678-1e-3 3.102-2.428 5.719-5.719 5.719m0-9.961c-2.363 0-3.987 1.877-3.987 4.242 0 2.363 1.729 4.263 4.029 4.263 2.364 0 4.011-1.878 4.011-4.22-1e-3 -2.386-1.754-4.285-4.053-4.285" clip-path="url(#a)" fill="#fff"/>
    <path d="m38.457 80.045h-1.625v-10.91h1.625v1.897c0.717-1.18 1.857-2.132 3.735-2.132 2.638 0 4.177 1.774 4.177 4.37v6.775h-1.625v-6.373c0-2.027-1.098-3.294-3.017-3.294-1.879 0-3.271 1.373-3.271 3.419v6.248z" clip-path="url(#a)" fill="#fff"/>
    <path d="m57.004 80.045v-2.198c-0.887 1.311-2.172 2.428-4.18 2.428-2.613 0-5.211-2.068-5.211-5.676 0-3.588 2.598-5.699 5.211-5.699 2.028 0 3.336 1.098 4.18 2.322v-6.582h1.625v15.406h-1.625zm-3.883-9.686c-2.108 0-3.84 1.559-3.84 4.219 0 2.594 1.771 4.243 3.84 4.243 2.027 0 3.947-1.691 3.947-4.243 0-2.532-1.92-4.219-3.947-4.219" clip-path="url(#a)" fill="#fff"/>
    <path d="m65.654 80.297c-3.27 0-5.654-2.574-5.654-5.676 0-3.103 2.405-5.721 5.699-5.721 3.268 0 5.675 2.577 5.675 5.678 0 3.102-2.427 5.719-5.72 5.719m0-9.961c-2.363 0-3.988 1.877-3.988 4.242 0 2.363 1.732 4.263 4.033 4.263 2.359 0 4.008-1.878 4.008-4.22 0-2.386-1.754-4.285-4.053-4.285" clip-path="url(#a)" fill="#fff"/>
    <path d="m74.348 80.045h-1.625v-10.91h1.625v1.897c0.717-1.18 1.856-2.132 3.732-2.132 2.64 0 4.18 1.774 4.18 4.37v6.775h-1.622v-6.373c0-2.027-1.101-3.294-3.019-3.294-1.878 0-3.271 1.373-3.271 3.419v6.248z" clip-path="url(#a)" fill="#fff"/>
    <polygon points="99.771 66.813 90.826 66.813 90.826 72.087 98.823 72.087 98.823 73.607 90.826 73.607 90.826 80.044 89.16 80.044 89.16 65.273 99.771 65.273" clip-path="url(#a)" fill="#fff"/>
    <path d="m101.25 71.223l-0.485-1.328c1.204-0.549 2.385-0.909 3.967-0.909 2.976 0 4.644 1.519 4.644 4.389v6.67h-1.563v-1.648c-0.76 0.993-2.025 1.878-3.947 1.878-2.024 0-4.07-1.14-4.07-3.42 0-2.32 1.898-3.542 4.664-3.542 1.391 0 2.384 0.189 3.354 0.462v-0.378c0-1.961-1.203-2.977-3.25-2.977-1.289 0-2.3 0.339-3.314 0.803m0.189 5.57c0 1.395 1.266 2.194 2.743 2.194 2.005 0 3.653-1.223 3.653-2.954v-1.054c-0.805-0.232-1.88-0.465-3.211-0.465-2.044 0-3.185 0.888-3.185 2.279" clip-path="url(#a)" fill="#fff"/>
    <path d="m123.74 68.9c2.515 0 4.052 1.689 4.052 4.392v6.753h-1.625v-6.374c0-2.113-1.053-3.293-2.824-3.293-1.648 0-3.02 1.223-3.02 3.376v6.291h-1.602v-6.416c0-2.048-1.076-3.251-2.809-3.251-1.729 0-3.037 1.436-3.037 3.44v6.227h-1.627v-10.911h1.627v1.836c0.718-1.076 1.688-2.07 3.521-2.07 1.775 0 2.915 0.951 3.504 2.174 0.785-1.2 1.944-2.174 3.84-2.174" clip-path="url(#a)" fill="#fff"/>
    <path d="m129.78 64.954h1.855v1.794h-1.855v-1.794zm0.107 4.181h1.623v10.91h-1.623v-10.91z" clip-path="url(#a)" fill="#fff"/>
    <rect x="133.85" y="64.64" width="1.624" height="15.405" clip-path="url(#a)" fill="#fff"/>
    <path d="m142.98 80.402c-0.931 2.258-1.983 3.08-3.63 3.08-0.906 0-1.582-0.189-2.318-0.549l0.547-1.286c0.527 0.275 1.012 0.4 1.707 0.4 0.975 0 1.584-0.504 2.239-2.045l-4.96-10.868h1.794l3.968 9.094 3.504-9.094h1.729l-4.58 11.268z" clip-path="url(#a)" fill="#fff"/>
    <path d="m36.612 100.49c-4.263 0-7.408-3.356-7.408-7.617 0-4.22 3.124-7.66 7.472-7.66 2.681 0 4.283 0.95 5.76 2.341l-1.14 1.224c-1.245-1.181-2.638-2.026-4.642-2.026-3.27 0-5.717 2.638-5.717 6.078 0 3.439 2.468 6.119 5.717 6.119 2.027 0 3.355-0.78 4.769-2.131l1.098 1.076c-1.541 1.563-3.23 2.596-5.909 2.596" clip-path="url(#a)" fill="#fff"/>
    <path d="m48.344 100.49c-3.271 0-5.656-2.574-5.656-5.677 0-3.1 2.404-5.718 5.697-5.718 3.271 0 5.679 2.575 5.679 5.674-1e-3 3.105-2.429 5.721-5.72 5.721m0-9.961c-2.363 0-3.988 1.879-3.988 4.24 0 2.364 1.731 4.266 4.029 4.266 2.363 0 4.011-1.879 4.011-4.222 0-2.384-1.753-4.284-4.052-4.284" clip-path="url(#a)" fill="#fff"/>
    <path d="m63.156 89.328h1.603v10.91h-1.603v-1.9c-0.74 1.181-1.859 2.13-3.735 2.13-2.637 0-4.178-1.772-4.178-4.367v-6.773h1.625v6.373c0 2.025 1.098 3.291 3.017 3.291 1.858 0 3.271-1.371 3.271-3.42v-6.244z" clip-path="url(#a)" fill="#fff"/>
    <path d="m68.453 100.24h-1.627v-10.91h1.627v2.847c0.801-1.814 2.383-3.123 4.449-3.039v1.753h-0.124c-2.386 0-4.325 1.709-4.325 4.999v4.35z" clip-path="url(#a)" fill="#fff"/>
    <path d="m75.984 97.134c0 1.329 0.738 1.815 1.834 1.815 0.549 0 1.015-0.105 1.585-0.379v1.393c-0.57 0.295-1.183 0.463-1.963 0.463-1.751 0-3.081-0.864-3.081-3.081v-6.583h-1.518v-1.434h1.518v-3.293h1.625v3.293h3.459v1.434h-3.459v6.372z" clip-path="url(#a)" fill="#fff"/>
    <path d="m92.504 100.49c-4.262 0-7.402-3.356-7.402-7.617 0-4.22 3.121-7.66 7.467-7.66 2.68 0 4.285 0.95 5.76 2.341l-1.139 1.224c-1.246-1.181-2.639-2.026-4.643-2.026-3.271 0-5.719 2.638-5.719 6.078 0 3.439 2.47 6.119 5.719 6.119 2.025 0 3.355-0.78 4.769-2.131l1.099 1.076c-1.542 1.563-3.229 2.596-5.911 2.596" clip-path="url(#a)" fill="#fff"/>
    <rect x="99.615" y="84.832" width="1.627" height="15.406" clip-path="url(#a)" fill="#fff"/>
    <path d="m103.48 85.15h1.857v1.793h-1.857v-1.793zm0.105 4.178h1.626v10.91h-1.626v-10.91z" clip-path="url(#a)" fill="#fff"/>
    <path d="m109.03 100.24h-1.626v-10.91h1.626v1.898c0.717-1.182 1.854-2.131 3.733-2.131 2.639 0 4.18 1.774 4.18 4.368v6.775h-1.626v-6.374c0-2.026-1.1-3.292-3.018-3.292-1.879 0-3.27 1.373-3.27 3.418v6.248z" clip-path="url(#a)" fill="#fff"/>
    <path d="m118.86 85.15h1.858v1.793h-1.858v-1.793zm0.108 4.178h1.623v10.91h-1.623v-10.91z" clip-path="url(#a)" fill="#fff"/>
    <path d="m127.7 100.49c-3.185 0-5.591-2.596-5.591-5.677 0-3.1 2.406-5.718 5.591-5.718 2.069 0 3.357 0.867 4.37 1.942l-1.077 1.139c-0.865-0.907-1.836-1.647-3.313-1.647-2.215 0-3.903 1.879-3.903 4.24 0 2.387 1.731 4.266 4.011 4.266 1.391 0 2.468-0.697 3.332-1.626l1.033 0.972c-1.095 1.222-2.404 2.109-4.453 2.109" clip-path="url(#a)" fill="#fff"/>
    <path d="m-499.75 181" fill="none"/>
    </svg>