<svg xmlns="http://www.w3.org/2000/svg" width="235" height="29"><title>images/propeller_logo</title><desc>Created with Sketch.</desc><g fill="#fff"><g><g><g><g><path id="Shape" fill="#F56B22" d="M78.47 12v4.7c0 7.06-5.3 12-11.63 12-6.3 0-11.62-4.94-11.57-12V12C55.22 4.8 60.47 0 66.8 0c6.3 0 11.67 4.83 11.67 12zm-5.5-.2c-.02-4.27-2.87-6.97-6.18-6.97s-6.17 2.7-6.17 6.97v5c0 4.2 2.86 6.96 6.16 6.96s6.16-2.75 6.16-6.97v-5z"/><path id="Shape" fill="#F87821" d="M113.84 28.3V.3h17.14v4.94h-11.73v6.56h10.48v4.73h-10.48v6.82h11.33l.7 4.94h-17.44z"/><path id="Shape" fill="#FA7F20" d="M140.55.3h5.4v23.1h12.3l-1.02 4.9h-16.68V.3z"/><path id="Shape" fill="#FC851F" d="M164.55.3h5.4v23.1h12.34l-1 4.9h-16.7c-.05-4.4-.05-26.26-.05-28z"/><path id="Shape" fill="#FD8C1F" d="M188.85 28.34V.36H206V5.3h-11.74v6.55h10.48v4.74h-10.48v6.75h11.33l.7 4.94h-17.45v.04z"/><path id="Shape" fill="#F15C24" d="M10.87.25H0s.1 4.33.1 5.3v17.5c0 .96-.05 5.3-.05 5.3h5.5v-8.97h5.37c5.42 0 9.02-4.52 9.02-9.87 0-5.02-3.76-9.25-9.07-9.25zm-.85 14.1h-4.5v-9.3h4.75c2.3 0 4.16 2.02 4.16 4.4 0 2.8-1.8 4.9-4.4 4.9z"/><path id="Shape" fill="#F77321" d="M97.4.25H86.54s.1 4.33.1 5.3v17.5c0 .96-.05 5.3-.05 5.3h5.52v-8.97h5.36c5.4 0 9.02-4.52 9.02-9.87 0-5.02-3.76-9.25-9.07-9.25zm-.85 14.1h-4.5v-9.3h4.76c2.3 0 4.16 2.02 4.16 4.4 0 2.8-1.8 4.9-4.4 4.9z"/><path id="Shape" fill="#F36423" d="M42.3 17.86c.44-.2.9-.46 1.14-.6 2.66-1.7 4.2-4.44 4.2-7.64 0-5-3.65-9.42-9-9.3H27.75s.05 4.3.05 5.28v22.74h5.42v-9.5h2.26c2.6 0 3.8 4.6 5.56 6.96 1.7 2.28 4.66 3.6 7.3 2.5v-4.74c-4.5.5-3.8-4.02-6.05-5.7zM37.92 14h-4.7V5.23h4.95c2.5 0 4.06 2.2 4.06 4.38 0 2.18-1.55 4.37-4.3 4.37z"/><path fill="#FF911E" d="M228.6 17.86c.5-.2.9-.46 1.14-.6 2.65-1.7 4.2-4.44 4.2-7.64 0-5-3.65-9.42-9-9.3h-10.88s.05 4.3.05 5.28v22.74h5.42v-9.5h2.25c2.6 0 3.8 4.6 5.56 6.96 1.7 2.28 4.66 3.56 7.27 2.5v-4.74c-4.46.5-3.8-4.02-6-5.7zM224.22 14h-4.7V5.23h4.95c2.5 0 4 2.2 4 4.38 0 2.23-1.55 4.37-4.25 4.37z"/></g></g></g></g></g></svg>