<svg version="1.1" id="Logo" xmlns="http://www.w3.org/2000/svg" xmlns:xlink="http://www.w3.org/1999/xlink" x="0px" y="0px"
	 width="296.918px" height="143.767px" viewBox="0 0 296.918 143.767" enable-background="new 0 0 296.918 143.767"
	 xml:space="preserve">
<g>
	<rect y="23.942" fill="#004C9B" width="281.28" height="119.825"/>
	<rect x="257.337" fill="#FFDC00" width="39.581" height="119.824"/>
	<g>
		<path fill="#FFFFFF" d="M44.25,62.724c3.422-0.828,7.269-3.835,7.269-9.514c0-6.226-4.256-9.943-11.385-9.943H24.336l-0.394,0.393
			v32.558l0.394,0.394h5.643l0.393-0.394V63.614l0.41-0.461L36,63.169l0.844,0.461l9.635,12.531l0.9,0.45h2.786l0.394-0.394v-4.693
			l-6.308-8.238V62.724z M40.134,57.686h-9.377l-0.385-0.377v-8.172l0.369-0.402h9.394c3.428,0,4.956,1.38,4.956,4.476
			S43.562,57.686,40.134,57.686z"/>
		<path fill="#FFFFFF" d="M58.587,86.064c6.866,0,8.656-4.431,10.435-8.879l7.68-19.198v-4.715l-0.393-0.393h-4.202l-0.413,0.413
			l-5.865,16.619h-0.563l-5.848-16.619l-0.412-0.413h-4.202l-0.394,0.393v4.714l7.69,18.774l-0.008,0.528
			c-0.456,1.736-1.039,3.394-3.506,3.307h-2.83l-0.392,0.394v4.682l0.392,0.394H58.587z"/>
		<path fill="#FFFFFF" d="M101.366,66.999l0.392-0.393v-1.86c0-9.113-6.133-12.347-11.385-12.347
			c-5.252,0-11.385,3.234-11.385,12.347c0,5.695,3.108,12.347,11.867,12.347c8.012,0,9.622-5.264,9.933-7.009l-0.382-0.382h-5.644
			l-0.42,0.42c-0.474,0.914-1.838,1.502-3.487,1.502c-4.115,0-4.956-3.087-4.956-4.228l0.368-0.397H101.366z M85.898,62.124
			c0-1.182,0.759-4.257,4.475-4.257c3.716,0,4.476,3.154,4.476,4.242l-0.364,0.383h-8.203L85.898,62.124z"/>
		<path fill="#FFFFFF" d="M112.172,55.052l-0.593-1.761l-0.411-0.412h-5.164l-0.392,0.393v22.946l0.392,0.394h5.644l0.394-0.394
			V64.745c0-4.544,1.575-6.398,5.436-6.398h3.303l0.393-0.393v-4.682l-0.393-0.393h-2.822c-4.411,0-5.339,2.154-5.349,2.172H112.172
			z"/>
		<path fill="#FFFFFF" d="M135.906,62.49c-0.493-0.083-0.987-0.15-1.465-0.217c-2.376-0.328-4.427-0.611-4.427-2.334
			c0-1.726,1.345-2.072,3.515-2.072c2.383,0,3.471,0.472,3.513,1.528l0.395,0.395h5.644l0.392-0.393
			c-0.036-4.317-3.838-6.998-9.942-6.998c-6.227,0-9.943,2.64-9.943,7.06c0,4.009,3.03,6.546,9.006,7.542
			c0.378,0.063,0.74,0.118,1.083,0.17c2.318,0.351,3.849,0.583,3.849,2.381c0,1.858-2.28,2.072-3.995,2.072
			c-2.055,0-3.958-0.303-3.994-2.49l-0.394-0.394h-5.644l-0.393,0.393c0.033,4.911,4.021,7.959,10.424,7.959
			c5.039,0,10.423-1.981,10.423-7.541C143.952,63.831,138.518,62.925,135.906,62.49z"/>
		<path fill="#FFFFFF" d="M158.542,52.398c-7.208,0-11.867,4.847-11.867,12.347s4.658,12.347,11.867,12.347
			c7.208,0,11.866-4.847,11.866-12.347S165.75,52.398,158.542,52.398z M158.542,71.624c-3.455,0-5.437-2.507-5.437-6.878
			s1.981-6.878,5.437-6.878c3.455,0,5.436,2.507,5.436,6.878S161.997,71.624,158.542,71.624z"/>
		<path fill="#FFFFFF" d="M190.391,76.611h5.643l0.394-0.394V61.861c0-5.837-3.442-9.463-8.982-9.463
			c-2.476,0-4.804,0.872-6.351,2.591h-0.438l-0.553-1.698l-0.411-0.412h-5.163l-0.393,0.393v22.946l0.393,0.394h5.644l0.393-0.394
			V64.265c0-4.246,1.829-6.398,5.437-6.398c2.613,0,3.995,1.547,3.995,4.475v13.876L190.391,76.611z"/>
		<path fill="#FFFFFF" d="M50.558,86.833l-0.393-0.393h-5.644l-0.392,0.393v20.124c0,5.202-2.314,7.84-6.879,7.84
			c-4.564,0-6.878-2.638-6.878-7.84V86.833l-0.393-0.393h-5.644l-0.393,0.393v20.124c0,8.582,4.726,13.308,13.308,13.308
			s13.308-4.726,13.308-13.308V86.833z"/>
		<g>
			<polygon fill="#FFFFFF" points="82.83,86.44 82.437,86.833 82.437,91.515 82.83,91.908 88.473,91.908 88.866,91.515 
				88.866,86.833 88.473,86.44 			"/>
			<polygon fill="#FFFFFF" points="88.473,119.784 88.866,119.392 88.866,96.445 88.473,96.053 82.83,96.053 82.437,96.445 
				82.437,119.392 82.83,119.784 			"/>
		</g>
		<polygon fill="#FFFFFF" points="110.416,96.053 110.002,96.467 104.099,111.692 103.62,111.692 97.729,96.467 97.314,96.053 
			93.113,96.053 92.721,96.445 92.721,101.157 100.867,119.367 101.284,119.784 106.447,119.784 106.864,119.367 115.01,101.157 
			115.01,96.445 114.617,96.053 		"/>
		<path fill="#FFFFFF" d="M174.091,105.663c-0.494-0.082-0.987-0.15-1.466-0.217c-2.376-0.328-4.427-0.61-4.427-2.334
			c0-1.726,1.344-2.072,3.514-2.072c2.384,0,3.472,0.472,3.514,1.528l0.394,0.394h5.644l0.393-0.393
			c-0.036-4.317-3.839-6.997-9.943-6.997c-6.226,0-9.943,2.639-9.943,7.06c0,4.009,3.031,6.546,9.007,7.542
			c0.378,0.063,0.74,0.118,1.083,0.17c2.317,0.351,3.847,0.582,3.847,2.381c0,1.857-2.279,2.072-3.995,2.072
			c-2.056,0-3.959-0.303-3.994-2.49l-0.393-0.394h-5.644l-0.392,0.393c0.033,4.911,4.02,7.959,10.422,7.959
			c5.04,0,10.425-1.98,10.425-7.54C182.137,107.004,176.703,106.099,174.091,105.663z"/>
		<g>
			<polygon fill="#FFFFFF" points="192.026,119.784 192.42,119.392 192.42,96.445 192.026,96.053 186.383,96.053 185.991,96.445 
				185.991,119.392 186.383,119.784 			"/>
			<polygon fill="#FFFFFF" points="186.383,86.44 185.991,86.833 185.991,91.515 186.383,91.908 192.026,91.908 192.42,91.515 
				192.42,86.833 192.026,86.44 			"/>
		</g>
		<path fill="#FFFFFF" d="M208.141,119.784h4.264l0.392-0.393v-4.683l-0.392-0.393h-4.264c-1.041,0-1.591-0.551-1.591-1.592v-10.813
			l0.388-0.391h5.468l0.392-0.393v-4.683l-0.392-0.393h-5.478l-0.378-0.388v-4.507l-0.393-0.393h-5.644l-0.393,0.393v4.507
			l-0.396,0.388h-3.536l-0.393,0.393v4.683l0.393,0.393h3.557l0.376,0.385v10.819C200.12,119.096,205.729,119.784,208.141,119.784z"
			/>
		<path fill="#FFFFFF" d="M71.586,119.784h5.644l0.393-0.393v-14.357c0-5.836-3.442-9.462-8.982-9.462
			c-2.476,0-4.804,0.872-6.351,2.59h-0.438l-0.553-1.698l-0.411-0.411h-5.164l-0.393,0.393v22.946l0.393,0.393h5.644l0.393-0.393
			v-11.954c0-4.245,1.829-6.397,5.437-6.397c2.613,0,3.995,1.548,3.995,4.476v13.876L71.586,119.784z"/>
		<path fill="#FFFFFF" d="M139.551,110.172l0.393-0.393v-1.861c0-9.112-6.133-12.346-11.385-12.346s-11.385,3.233-11.385,12.346
			c0,5.695,3.107,12.347,11.866,12.347c8.012,0,9.622-5.264,9.933-7.008l-0.382-0.383h-5.644l-0.42,0.421
			c-0.473,0.913-1.838,1.502-3.487,1.502c-4.115,0-4.956-3.088-4.956-4.228l0.368-0.397H139.551z M124.083,105.297
			c0-1.181,0.759-4.257,4.475-4.257c3.716,0,4.476,3.154,4.476,4.241l-0.364,0.384h-8.203L124.083,105.297z"/>
		<path fill="#FFFFFF" d="M150.357,98.225l-0.593-1.761l-0.411-0.411h-5.164l-0.393,0.393v22.946l0.393,0.393h5.644l0.393-0.393
			v-11.474c0-4.544,1.575-6.397,5.437-6.397h3.303l0.393-0.393v-4.683l-0.393-0.393h-2.822c-4.411,0-5.339,2.154-5.349,2.172
			H150.357z"/>
		<path fill="#FFFFFF" d="M219.886,129.237c6.866,0,8.655-4.431,10.435-8.878L238,101.161v-4.716l-0.393-0.393h-4.202l-0.413,0.412
			l-5.865,16.619h-0.563l-5.848-16.619l-0.412-0.412h-4.202l-0.394,0.393v4.715l7.69,18.773l-0.008,0.528
			c-0.548,1.761-1.267,3.308-3.505,3.308h-2.342l-0.393,0.393v4.683l0.393,0.393H219.886z"/>
	</g>
</g>
</svg>
