<?xml version="1.0" encoding="UTF-8"?>
<svg width="560px" height="139px" viewBox="0 0 560 139" version="1.1" xmlns="http://www.w3.org/2000/svg" xmlns:xlink="http://www.w3.org/1999/xlink">
    <!-- Generator: Sketch 43.2 (39069) - http://www.bohemiancoding.com/sketch -->
    <title>SPARQ logo</title>
    <desc>Created with Sketch.</desc>
    <defs></defs>
    <g id="Welcome" stroke="none" stroke-width="1" fill="none" fill-rule="evenodd">
        <g id="Promo-site-mockup" transform="translate(-440.000000, -298.000000)" fill="#F0BE3B">
            <g id="Header">
                <g id="SPARQ-logo" transform="translate(440.000000, 298.000000)">
                    <path d="M251.393876,84.1825242 L226.554627,84.1825242 L247.263503,36.2091945 L249.549987,30.9134473 L272.836408,84.1825242 L251.393876,84.1825242 Z M258.671914,23.2638648 L258.671914,23.2638648 C257.248114,19.7552604 253.864899,17.2838099 249.905562,17.2838099 C245.949226,17.2838099 242.582514,19.7598429 241.160214,23.2638648 L241.155713,23.2638648 L241.058192,23.4822934 L197.521992,122.296019 L210.048139,122.296019 L221.543568,95.7363264 L277.845966,95.7363264 L289.345897,122.296019 L302.164606,122.296019 L258.686918,23.3005242 L258.671914,23.2638648 Z" id="Fill-1"></path>
                    <path d="M18.8637864,42.9184648 C18.8637864,34.0667615 27.5626247,28.9619484 40.8239272,28.9619484 C44.4306894,28.9619484 48.5475594,29.4690692 52.8114605,30.5489923 L52.8174618,30.5505198 C52.8249633,30.5520473 52.8384662,30.5551022 52.8384662,30.5551022 C54.4663102,30.9690473 56.116659,31.4593659 57.7700084,32.0489703 L57.7700084,32.0168934 C61.5913159,33.4679923 64.4944294,35.2398604 64.5274364,35.2612451 C65.5101441,35.8722341 66.5963736,36.1639813 67.6706006,36.1639813 C69.7095315,36.1639813 71.6989519,35.1176626 72.8376926,33.2159593 C74.5765601,30.3168165 73.6778701,26.5286846 70.828768,24.755289 C70.5272043,24.5674099 63.3751929,20.1652341 55.3049874,18.5094538 C50.8295417,17.4448055 46.1830597,16.8093769 41.5620832,16.8093769 C20.1945677,16.8093769 5.89204515,27.4619703 5.89204515,43.9678385 C5.89204515,81.632256 63.9648175,66.927278 63.8192867,94.536344 C63.8192867,104.590168 54.5323242,110.7413 39.6476786,110.7413 C28.0022176,110.7413 14.8864459,105.341685 5.30392086,95.8866297 L0.000300063412,106.690443 C9.72535523,116.14397 24.4659703,122.747234 39.5006476,122.747234 C61.6063191,122.747234 76.7895277,111.494344 76.7895277,93.9345198 C76.9350585,55.8210253 18.8637864,69.9287615 18.8637864,42.9184648" id="Fill-3"></path>
                    <path d="M148.72778,77.5774275 L122.196173,77.5774275 L122.196173,28.8113396 L148.72778,28.8113396 C167.297204,28.8113396 178.058979,36.9161088 178.058979,52.8201527 C178.058979,69.1763286 167.297204,77.5774275 148.72778,77.5774275 M149.167373,17.2590648 L117.141605,17.2590648 L117.134104,17.2667022 C113.440323,17.3018341 110.457693,20.333867 110.417184,24.089922 L110.406682,24.089922 L110.406682,122.295713 L122.196173,122.295713 L122.196173,89.1358121 L149.167373,89.1358121 C174.668262,89.1358121 189.405877,75.7811198 189.405877,52.5222956 C189.405877,30.1616253 174.668262,17.2590648 149.167373,17.2590648" id="Fill-5"></path>
                    <path d="M367.277316,77.5774275 L339.863522,77.5774275 L339.863522,28.8113396 L367.277316,28.8113396 C385.996772,28.8113396 396.608514,36.9161088 396.608514,52.8201527 C396.608514,69.1763286 385.996772,77.5774275 367.277316,77.5774275 M407.955412,52.5222956 C407.955412,30.1616253 393.069266,17.2590648 367.277316,17.2590648 L334.804453,17.2590648 L334.801453,17.2667022 C331.104671,17.3018341 328.122041,20.333867 328.080032,24.089922 L328.074031,24.089922 L328.074031,122.295713 L339.863522,122.295713 L339.863522,89.1358121 L367.277316,89.1358121 C369.634314,89.1358121 371.994312,88.9845923 374.20578,88.8349 L395.576296,122.295713 L408.98763,122.295713 L384.814522,86.5834055 C399.700668,81.6313396 407.955412,69.9278451 407.955412,52.5222956" id="Fill-7"></path>
                    <path d="M485.036151,17.515222 C455.022309,20.9443978 433.324723,47.6171231 436.568409,77.0942879 C438.569832,95.2773209 449.618167,110.241969 464.816378,118.259673 C465.285978,118.510178 465.745075,118.754574 466.187668,118.976057 C466.520738,119.139497 466.855309,119.304464 467.18988,119.461793 C470.586598,121.071749 473.110131,121.855343 473.86479,122.070716 C473.899298,122.082936 473.935305,122.096684 473.971313,122.108903 L473.974314,122.102793 C474.011822,122.111958 474.086837,122.133343 474.103341,122.137925 C474.601446,122.270815 475.102552,122.333442 475.594656,122.333442 C478.197706,122.333442 480.575709,120.555464 481.267355,117.870167 C481.918492,115.339145 480.854768,112.783684 478.83234,111.408958 L478.844343,111.375354 C478.82934,111.369244 478.770827,111.349387 478.68981,111.320365 C478.197706,111.004178 477.668094,110.73687 477.075469,110.579541 C477.046963,110.570376 476.331312,110.370277 475.192571,109.94564 C473.291669,109.148299 471.036693,108.1142 469.429853,107.093848 C469.338334,107.035804 469.279822,106.98387 469.201805,106.931936 C458.118963,100.495167 450.06226,89.2040901 448.554442,75.4889143 C445.9919,52.2377275 463.242546,31.6183758 486.375934,28.9773758 C509.506323,26.3394308 530.516763,42.5917385 533.077804,65.8398703 C535.085228,84.0672 525.093116,100.727343 509.54233,108.352486 L509.551332,108.370815 C507.150825,109.403387 505.468969,111.821376 505.468969,114.64109 C505.468969,115.748508 505.751029,116.776497 506.210126,117.700618 L506.171118,117.718947 L515.719135,138.944705 L526.116333,134.052211 L518.424207,117.112541 C536.482023,106.623387 547.654884,86.4225626 545.261879,64.6896835 C542.015193,35.2094637 515.049994,14.0906286 485.036151,17.515222" id="Fill-9"></path>
                    <path d="M545.911816,97.3869132 L556.898638,102.019737 L559.770245,94.9643418 L548.888445,90.3758143 C548.045267,92.7739462 547.049056,95.1140341 545.911816,97.3869132" id="Fill-11"></path>
                    <path d="M422.116605,94.962967 L424.988212,102.018363 L435.608956,97.5398132 C434.49272,95.2623516 433.522015,92.9130989 432.699841,90.4996923 L422.116605,94.962967 Z" id="Fill-13"></path>
                    <path d="M424.988212,38.1241868 L422.116605,45.1795824 L433.457501,49.9620989 C434.366693,47.5822967 435.407914,45.2605385 436.602166,43.0227912 L424.988212,38.1241868 Z" id="Fill-15"></path>
                    <path d="M522.324281,2.92373516 L515.394317,0.00168021978 L510.044186,13.1486363 C512.452195,13.9093176 514.79419,14.8135813 517.06417,15.8537901 L522.324281,2.92373516 Z" id="Fill-17"></path>
                    <path d="M466.495983,0 L459.566019,2.92205495 L464.953657,16.1637143 C467.208634,15.1067033 469.535626,14.1673077 471.939134,13.3806593 L466.495983,0 Z" id="Fill-19"></path>
                    <path d="M559.770695,45.1798879 L556.899088,38.1244923 L545.594199,42.8917341 C546.759945,45.1340637 547.789163,47.4604044 548.669849,49.8615912 L559.770695,45.1798879 Z" id="Fill-21"></path>
                </g>
            </g>
        </g>
    </g>
</svg>